<svg width="181" height="48" viewBox="0 0 181 48" fill="none" xmlns="http://www.w3.org/2000/svg">
<path d="M40.7905 23.9823C42.8069 20.4549 43.4909 16.2186 42.6268 12.0709H42.6448C42.6448 12.0709 42.6268 12.0709 42.6268 12.0532V12.0355H42.6089C39.3862 9.19941 35.2815 7.63959 31.1587 7.60414C29.0523 4.07682 25.6318 1.34712 21.527 0.0177253V0H21.5091H21.491V0.0177253C17.3683 1.36484 13.9476 4.09454 11.8593 7.62187C7.70051 7.65732 3.59583 9.23486 0.373197 12.0886H0.35515V12.1064C0.35515 12.1064 0.337232 12.1064 0.337232 12.1241H0.35515C-0.490924 16.2718 0.193232 20.5081 2.2096 24.0177C0.193232 27.5451 -0.490926 31.7814 0.373197 35.9291H0.35515C0.35515 35.9291 0.373197 35.9291 0.373197 35.9469V35.9646H0.391246C3.61375 38.8006 7.71856 40.3605 11.8413 40.3959C13.9296 43.9232 17.3503 46.6529 21.473 47.9824V48H21.491H21.5091V47.9824C25.6318 46.6352 29.0523 43.9055 31.1408 40.3781C35.2995 40.3427 39.4043 38.7652 42.6268 35.9114H42.6448V35.8937C42.6448 35.8937 42.6629 35.8937 42.6629 35.876H42.6448C43.4909 31.7459 42.8069 27.5097 40.7905 23.9823ZM41.0425 12.9572C41.6187 16.2718 41.1146 19.5509 39.7103 22.3516C38.4141 20.6145 36.7397 19.1079 34.7233 17.9912C34.2552 17.7253 33.7692 17.4949 33.3011 17.2822C33.3552 16.7503 33.3911 16.2187 33.3911 15.6868C33.3911 13.4535 32.923 11.3087 32.0589 9.35894C35.2995 9.55393 38.45 10.8124 41.0425 12.9572ZM13.4796 24.8686L14.0376 23.9823L13.4976 23.096C12.5795 21.6248 11.9672 20.0118 11.6252 18.3457C13.1375 17.8494 14.7218 17.5835 16.3241 17.5835C16.4681 17.5835 16.6121 17.5835 16.7382 17.5835L17.8003 17.6189L18.3045 16.7149C19.1326 15.226 20.2128 13.8966 21.5091 12.7976C22.7873 13.8966 23.8854 15.226 24.7135 16.7149L25.2177 17.6189L26.2799 17.5835C26.4239 17.5835 26.5679 17.5835 26.6939 17.5835C28.2962 17.5835 29.8985 17.8494 31.3928 18.3457C31.0687 20.0118 30.4386 21.6425 29.5025 23.1137L28.9443 24.0001L29.4845 24.8863C30.4026 26.3574 31.0147 27.9704 31.3568 29.6367C29.8445 30.133 28.2603 30.3989 26.658 30.3989C26.5138 30.3989 26.3698 30.3989 26.2439 30.3989L25.1816 30.3633L24.6776 31.2674C23.8494 32.7563 22.7692 34.0857 21.473 35.1846C20.1948 34.0857 19.0965 32.7563 18.2684 31.2674L17.7643 30.3633L16.7022 30.3989C16.5581 30.3989 16.4141 30.3989 16.2881 30.3989C14.6858 30.3989 13.0835 30.133 11.5893 29.6367C11.9313 27.9528 12.5614 26.3398 13.4796 24.8686ZM9.96892 28.9631C9.68092 28.8213 9.3928 28.6795 9.12285 28.52C7.10647 27.3855 5.46808 25.8258 4.22585 23.9823C5.45016 22.1388 7.10647 20.579 9.1048 19.4624C9.39279 19.3028 9.69884 19.1433 9.98697 19.0015C10.383 20.774 11.0672 22.4579 12.0033 23.9645C11.0672 25.5067 10.3649 27.1906 9.96892 28.9631ZM30.9787 24.0177C31.9328 22.4933 32.617 20.8094 33.0131 19.0193C33.3011 19.161 33.5891 19.3028 33.8592 19.4624C35.8756 20.5968 37.5138 22.1566 38.7561 24.0001C37.5319 25.8434 35.8756 27.4033 33.8773 28.52C33.5891 28.6795 33.2831 28.839 32.9951 28.9809C32.5991 27.2082 31.9149 25.5244 30.9787 24.0177ZM31.6448 15.6692C31.6448 15.9882 31.6268 16.325 31.6089 16.644C29.9885 16.1301 28.3322 15.8996 26.6759 15.8996C26.5138 15.8996 26.3698 15.8996 26.2078 15.8996C25.3437 14.3574 24.2275 12.9394 22.8773 11.7341C23.1653 11.5392 23.4713 11.3619 23.7594 11.1847C25.7037 10.0857 27.8822 9.44757 30.1146 9.32349C31.1048 11.2733 31.6448 13.418 31.6448 15.6692ZM21.5091 1.80798C24.7316 2.97785 27.396 5.06942 29.1784 7.71049C27.036 7.94092 24.8936 8.61449 22.9132 9.73118C22.4092 10.0148 21.9411 10.3161 21.491 10.6352C21.0229 10.2984 20.5548 9.99705 20.0508 9.71345C18.0884 8.59676 15.964 7.95865 13.8396 7.71049C15.604 5.06942 18.2684 2.97785 21.5091 1.80798ZM12.8675 9.32349C15.0819 9.44757 17.2603 10.0857 19.1865 11.1669C19.4927 11.3442 19.7987 11.5214 20.1048 11.7341C18.7545 12.9394 17.6382 14.3398 16.7922 15.8818C16.6301 15.8818 16.4861 15.8818 16.3241 15.8818C14.6678 15.8818 13.0115 16.1301 11.3912 16.6263C11.3732 16.3072 11.3551 15.9882 11.3551 15.6514C11.3551 13.418 11.8953 11.2733 12.8675 9.32349ZM1.92148 12.9749C4.51397 10.8301 7.66455 9.57164 10.9591 9.34121C10.095 11.291 9.62691 13.418 9.62691 15.6692C9.62691 16.2009 9.66287 16.7327 9.71689 17.2644C9.21282 17.4771 8.72669 17.7253 8.24067 18.0089C6.24222 19.1433 4.56799 20.6322 3.27174 22.3693C1.88551 19.5509 1.3634 16.2718 1.92148 12.9749ZM1.93953 35.0428C1.3634 31.7283 1.86746 28.4491 3.27174 25.6484C4.56799 27.3855 6.24222 28.8921 8.25859 30.0088C8.72668 30.2747 9.21283 30.5052 9.68092 30.7178C9.6269 31.2497 9.59081 31.7813 9.59081 32.3132C9.59081 34.5465 10.0589 36.6913 10.9232 38.641C7.68247 38.4284 4.53202 37.1698 1.93953 35.0428ZM11.3372 32.3309C11.3372 32.0118 11.3551 31.6751 11.3732 31.356C12.9935 31.8701 14.6497 32.1004 16.306 32.1004C16.4681 32.1004 16.6121 32.1004 16.7741 32.1004C17.6382 33.6426 18.7545 35.0606 20.1048 36.2659C19.8167 36.4608 19.5106 36.6381 19.2226 36.8153C17.2782 37.9144 15.0999 38.5524 12.8675 38.6766C11.8773 36.7267 11.3372 34.5643 11.3372 32.3309ZM21.491 46.1921C18.2684 45.0222 15.604 42.9306 13.8216 40.2895C15.964 40.0592 18.1063 39.3856 20.0867 38.2689C20.5908 37.9852 21.0589 37.6839 21.5091 37.3649C21.977 37.6839 22.4451 38.003 22.9493 38.2865C24.9117 39.4032 27.036 40.0414 29.1604 40.2895C27.3781 42.9128 24.7135 45.0044 21.491 46.1921ZM30.1146 38.6588C27.9002 38.5348 25.7218 37.8966 23.7954 36.8153C23.4894 36.6381 23.1833 36.4608 22.8773 36.2482C24.2275 35.0428 25.3437 33.6426 26.1899 32.1004C26.3519 32.1004 26.4959 32.1004 26.658 32.1004C28.3143 32.1004 29.9705 31.8523 31.5908 31.356C31.6089 31.6751 31.6268 31.9941 31.6268 32.3309C31.6268 34.5643 31.0867 36.7091 30.1146 38.6588ZM41.0606 35.0074C38.4681 37.1522 35.3175 38.4107 32.0229 38.641C32.8871 36.6913 33.3552 34.5643 33.3552 32.3132C33.3552 31.7813 33.3192 31.2497 33.2652 30.7178C33.7692 30.5052 34.2552 30.257 34.7414 29.9734C36.7397 28.839 38.4141 27.3501 39.7103 25.613C41.0965 28.4313 41.6187 31.7105 41.0606 35.0074Z" fill="white"/>
<path d="M21.4655 16.9744L19.0001 21.5001L14.4744 23.9656L19.0001 26.4485L21.4655 30.9744L23.9486 26.4485L28.4744 23.9656L23.9486 21.5001L21.4655 16.9744Z" fill="white"/>
<path d="M78.3133 15.7627C78.0161 15.4459 77.6595 15.1884 77.2435 15.0101C76.8274 14.8122 76.352 14.7132 75.8369 14.7132H68.368C68.1698 14.7132 67.9717 14.6735 67.8132 14.5944C67.6349 14.5151 67.4962 14.4161 67.3774 14.2774C67.2585 14.1586 67.1595 14.0002 67.1 13.8418C67.0406 13.6834 67.001 13.5051 67.001 13.3269C67.001 13.1486 67.0406 12.9704 67.1 12.812C67.1595 12.6536 67.2585 12.4952 67.3774 12.3565C67.4962 12.2178 67.6547 12.1189 67.8132 12.0397C67.9717 11.9605 68.1698 11.9209 68.368 11.9209H77.4614L77.9567 10H68.368C67.8727 10 67.3972 10.099 66.9811 10.2969C66.5651 10.495 66.2085 10.7524 65.9113 11.0495C65.6142 11.3663 65.3962 11.7228 65.2377 12.1189C65.0792 12.5149 65 12.911 65 13.3269C65 13.7428 65.0792 14.1389 65.2377 14.5349C65.3962 14.931 65.6142 15.2676 65.9113 15.5844C66.2085 15.9014 66.5651 16.1588 66.9811 16.337C67.3972 16.535 67.8727 16.6341 68.368 16.6341H75.8567C76.0548 16.6341 76.2529 16.6736 76.4114 16.7529C76.5897 16.832 76.7284 16.931 76.8473 17.0697C76.9661 17.2084 77.0652 17.3469 77.1246 17.5252C77.1841 17.6836 77.2237 17.8618 77.2237 18.0401C77.2237 18.2183 77.1841 18.3966 77.1246 18.555C77.0652 18.7134 76.9661 18.8718 76.8473 18.9906C76.7284 19.1094 76.5699 19.2283 76.4114 19.3075C76.2529 19.3867 76.0548 19.4262 75.8567 19.4262H66.7632L66.2679 21.367H75.8369C76.352 21.367 76.8274 21.268 77.2435 21.07C77.6595 20.8719 78.0161 20.6146 78.3133 20.3175C78.6105 20.0005 78.8284 19.6442 78.9869 19.2481C79.1454 18.8521 79.2246 18.456 79.2246 18.0401C79.2246 17.6242 79.1454 17.2281 78.9869 16.832C78.8284 16.436 78.6105 16.0795 78.3133 15.7627Z" fill="white"/>
<path d="M89.3085 15.901L84.4942 10.0193H81.8593L88.3178 17.7823V21.3666H90.299V17.7823L96.7575 10.0193H94.1226L89.3085 15.901Z" fill="white"/>
<path d="M112.548 18.5941L101.988 10.0193H100.304V21.3666H102.285V12.772L112.845 21.3666H114.529V10.0193H112.548V18.5941Z" fill="white"/>
<path d="M119.085 11.9402H132.914L133.409 10.0193H119.085V11.9402Z" fill="white"/>
<path d="M121.067 16.6338H130.2L130.675 14.7129H119.085V21.3667H132.914L133.409 19.4261H121.067V16.6338Z" fill="white"/>
<path d="M150.764 15.7627C150.467 15.4459 150.11 15.1884 149.694 15.0101C149.278 14.8122 148.803 14.7132 148.287 14.7132H140.799C140.601 14.7132 140.403 14.6735 140.244 14.5944C140.066 14.5151 139.927 14.4161 139.808 14.2774C139.689 14.1586 139.59 14.0002 139.531 13.8418C139.471 13.6834 139.432 13.5051 139.432 13.3269C139.432 13.1486 139.471 12.9704 139.531 12.812C139.59 12.6536 139.689 12.4952 139.808 12.3565C139.927 12.2178 140.085 12.1189 140.244 12.0397C140.403 11.9605 140.601 11.9209 140.799 11.9209H149.892L150.388 10H140.799C140.303 10 139.828 10.099 139.412 10.2969C138.996 10.495 138.639 10.7524 138.342 11.0495C138.045 11.3663 137.827 11.7228 137.669 12.1189C137.51 12.5149 137.431 12.911 137.431 13.3269C137.431 13.7428 137.51 14.1389 137.669 14.5349C137.827 14.931 138.045 15.2676 138.342 15.5844C138.639 15.9014 138.996 16.1588 139.412 16.337C139.828 16.535 140.303 16.6341 140.799 16.6341H148.287C148.486 16.6341 148.684 16.6736 148.842 16.7529C149.021 16.832 149.159 16.931 149.278 17.0697C149.397 17.2084 149.496 17.3469 149.555 17.5252C149.615 17.6836 149.655 17.8618 149.655 18.0401C149.655 18.2183 149.615 18.3966 149.555 18.555C149.496 18.7134 149.397 18.8718 149.278 18.9906C149.159 19.1094 149.001 19.2283 148.842 19.3075C148.684 19.3867 148.486 19.4262 148.287 19.4262H139.194L138.699 21.367H148.268C148.783 21.367 149.258 21.268 149.674 21.07C150.09 20.8719 150.447 20.6146 150.744 20.3175C151.041 20.0005 151.259 19.6442 151.418 19.2481C151.576 18.8521 151.655 18.456 151.655 18.0401C151.655 17.644 151.576 17.2281 151.418 16.832C151.279 16.436 151.041 16.0795 150.764 15.7627Z" fill="white"/>
<path d="M160.551 10.0193H158.57V21.3469H160.551V10.0193Z" fill="white"/>
<path d="M180.501 16.832C180.342 16.436 180.124 16.0795 179.827 15.7627C179.53 15.4459 179.174 15.1884 178.757 15.0101C178.341 14.8122 177.866 14.7132 177.351 14.7132H169.862C169.664 14.7132 169.466 14.6735 169.307 14.5944C169.129 14.5151 168.99 14.4161 168.872 14.2774C168.753 14.1586 168.654 14.0002 168.594 13.8418C168.535 13.6834 168.495 13.5051 168.495 13.3269C168.495 13.1486 168.535 12.9704 168.594 12.812C168.654 12.6536 168.753 12.4952 168.872 12.3565C168.99 12.2178 169.149 12.1189 169.307 12.0397C169.466 11.9605 169.664 11.9209 169.862 11.9209H178.955L179.451 10H169.862C169.367 10 168.891 10.099 168.475 10.2969C168.059 10.495 167.703 10.7524 167.405 11.0495C167.108 11.3663 166.89 11.7228 166.732 12.1189C166.573 12.5149 166.494 12.911 166.494 13.3269C166.494 13.7428 166.573 14.1389 166.732 14.5349C166.89 14.931 167.108 15.2676 167.405 15.5844C167.703 15.9014 168.059 16.1588 168.475 16.337C168.891 16.535 169.367 16.6341 169.862 16.6341H177.351C177.549 16.6341 177.747 16.6736 177.906 16.7529C178.084 16.832 178.222 16.931 178.341 17.0697C178.46 17.2084 178.559 17.3469 178.619 17.5252C178.678 17.6836 178.718 17.8618 178.718 18.0401C178.718 18.2183 178.678 18.3966 178.619 18.555C178.559 18.7134 178.46 18.8718 178.341 18.9906C178.222 19.1094 178.064 19.2283 177.906 19.3075C177.747 19.3867 177.549 19.4262 177.351 19.4262H168.257L167.762 21.367H177.331C177.846 21.367 178.322 21.268 178.738 21.07C179.154 20.8719 179.51 20.6146 179.807 20.3175C180.105 20.0005 180.322 19.6442 180.481 19.2481C180.64 18.8521 180.719 18.456 180.719 18.0401C180.719 17.6242 180.659 17.2281 180.501 16.832Z" fill="white"/>
<path d="M113.4 27.4461C113.102 27.1292 112.766 26.8917 112.349 26.6936C111.933 26.4956 111.458 26.3965 110.963 26.3965H103.553C103.038 26.3965 102.582 26.4956 102.166 26.6936C101.75 26.8917 101.394 27.1292 101.116 27.4461C100.819 27.7629 100.601 28.1194 100.443 28.4956C100.284 28.8917 100.205 29.2878 100.205 29.6838V34.3376C100.205 34.7337 100.284 35.1496 100.443 35.5259C100.601 35.922 100.819 36.2783 101.116 36.5754C101.414 36.8922 101.75 37.1299 102.166 37.328C102.582 37.5259 103.058 37.6251 103.553 37.6251H110.963C111.478 37.6251 111.933 37.5259 112.349 37.328C112.766 37.1299 113.122 36.8922 113.4 36.5754C113.697 36.2586 113.915 35.9021 114.073 35.5259C114.232 35.1299 114.311 34.7337 114.311 34.3376V29.6838C114.311 29.2878 114.232 28.872 114.073 28.4956C113.915 28.0996 113.697 27.7629 113.4 27.4461ZM112.33 34.3574C112.33 34.5357 112.29 34.6941 112.231 34.8723C112.151 35.0307 112.072 35.1891 111.933 35.308C111.815 35.4268 111.656 35.5456 111.498 35.6249C111.339 35.704 111.141 35.7437 110.943 35.7437H103.533C103.335 35.7437 103.137 35.704 102.979 35.6249C102.8 35.5456 102.662 35.4467 102.543 35.308C102.424 35.1891 102.325 35.0307 102.246 34.8723C102.186 34.7139 102.147 34.5357 102.147 34.3574V29.7037C102.147 29.5254 102.186 29.367 102.246 29.1888C102.325 29.0304 102.424 28.872 102.543 28.7333C102.662 28.5948 102.8 28.4956 102.979 28.4165C103.137 28.3372 103.335 28.2977 103.533 28.2977H110.943C111.141 28.2977 111.339 28.3372 111.498 28.4165C111.656 28.4956 111.815 28.5948 111.933 28.7333C112.052 28.872 112.151 29.0105 112.231 29.1888C112.29 29.3472 112.33 29.5254 112.33 29.7037V34.3574Z" fill="white"/>
<path d="M130.556 34.9119L120.096 26.3965H118.411V37.6448H120.373V29.1492L130.853 37.6448H132.537V26.3965H130.556V34.9119Z" fill="white"/>
<path d="M137.054 28.3174H150.764L151.259 26.3965H137.054V28.3174Z" fill="white"/>
<path d="M139.016 32.9717H148.07L148.565 31.0706H137.054V37.6452H150.764L151.259 35.7243H139.016V32.9717Z" fill="white"/>
</svg>
